<?xml version="1.0" encoding="utf-8"?>
<svg version="1.1" xmlns:xlink="http://www.w3.org/1999/xlink" width="20px" height="20px" xmlns="http://www.w3.org/2000/svg">
  <g transform="matrix(1 0 0 1 -111 -777 )">
    <path d="M 12.1935096153846 7.80649038461539  C 12.2696314102564 7.88261217948718  12.3076923076923 7.97275641025641  12.3076923076923 8.07692307692308  L 12.3076923076923 8.84615384615385  C 12.3076923076923 8.95032051282051  12.2696314102564 9.04046474358974  12.1935096153846 9.11658653846154  C 12.1173878205128 9.19270833333333  12.0272435897436 9.23076923076923  11.9230769230769 9.23076923076923  L 9.23076923076923 9.23076923076923  L 9.23076923076923 11.9230769230769  C 9.23076923076923 12.0272435897436  9.19270833333333 12.1173878205128  9.11658653846154 12.1935096153846  C 9.04046474358974 12.2696314102564  8.95032051282051 12.3076923076923  8.84615384615385 12.3076923076923  L 8.07692307692308 12.3076923076923  C 7.97275641025641 12.3076923076923  7.88261217948718 12.2696314102564  7.80649038461538 12.1935096153846  C 7.73036858974359 12.1173878205128  7.69230769230769 12.0272435897436  7.69230769230769 11.9230769230769  L 7.69230769230769 9.23076923076923  L 5 9.23076923076923  C 4.89583333333333 9.23076923076923  4.8056891025641 9.19270833333333  4.72956730769231 9.11658653846154  C 4.65344551282051 9.04046474358974  4.61538461538462 8.95032051282051  4.61538461538462 8.84615384615385  L 4.61538461538462 8.07692307692308  C 4.61538461538462 7.97275641025641  4.65344551282051 7.88261217948718  4.72956730769231 7.80649038461539  C 4.8056891025641 7.73036858974359  4.89583333333333 7.69230769230769  5 7.69230769230769  L 7.69230769230769 7.69230769230769  L 7.69230769230769 5  C 7.69230769230769 4.89583333333333  7.73036858974359 4.8056891025641  7.80649038461538 4.72956730769231  C 7.88261217948718 4.65344551282051  7.97275641025641 4.61538461538462  8.07692307692308 4.61538461538462  L 8.84615384615385 4.61538461538462  C 8.95032051282051 4.61538461538462  9.04046474358974 4.65344551282051  9.11658653846154 4.72956730769231  C 9.19270833333333 4.8056891025641  9.23076923076923 4.89583333333333  9.23076923076923 5  L 9.23076923076923 7.69230769230769  L 11.9230769230769 7.69230769230769  C 12.0272435897436 7.69230769230769  12.1173878205128 7.73036858974359  12.1935096153846 7.80649038461539  Z M 12.265625 12.265625  C 13.3193108974359 11.2119391025641  13.8461538461538 9.94391025641026  13.8461538461538 8.46153846153846  C 13.8461538461538 6.97916666666667  13.3193108974359 5.71113782051282  12.265625 4.65745192307692  C 11.2119391025641 3.60376602564102  9.94391025641026 3.07692307692308  8.46153846153846 3.07692307692308  C 6.97916666666667 3.07692307692308  5.71113782051282 3.60376602564102  4.65745192307692 4.65745192307692  C 3.60376602564103 5.71113782051282  3.07692307692308 6.97916666666667  3.07692307692308 8.46153846153846  C 3.07692307692308 9.94391025641026  3.60376602564103 11.2119391025641  4.65745192307692 12.265625  C 5.71113782051282 13.3193108974359  6.97916666666667 13.8461538461538  8.46153846153846 13.8461538461538  C 9.94391025641026 13.8461538461538  11.2119391025641 13.3193108974359  12.265625 12.265625  Z M 19.5552884615385 17.3798076923077  C 19.8517628205128 17.6762820512821  20 18.036858974359  20 18.4615384615385  C 20 18.8862179487179  19.8497596153846 19.2487980769231  19.5492788461538 19.5492788461538  C 19.2487980769231 19.8497596153846  18.886217948718 20  18.4615384615385 20  C 18.0288461538462 20  17.6682692307692 19.8477564102564  17.3798076923077 19.5432692307692  L 13.2572115384615 15.4326923076923  C 11.8229166666667 16.4262820512821  10.224358974359 16.9230769230769  8.46153846153846 16.9230769230769  C 7.31570512820513 16.9230769230769  6.21995192307692 16.7007211538462  5.17427884615385 16.2560096153846  C 4.12860576923077 15.8112980769231  3.22716346153846 15.2103365384615  2.46995192307692 14.453125  C 1.71274038461538 13.6959134615385  1.11177884615385 12.7944711538462  0.667067307692308 11.7487980769231  C 0.222355769230769 10.703125  0 9.60737179487179  0 8.46153846153846  C 0 7.31570512820513  0.222355769230769 6.21995192307692  0.667067307692308 5.17427884615385  C 1.11177884615385 4.12860576923077  1.71274038461538 3.22716346153846  2.46995192307692 2.46995192307692  C 3.22716346153846 1.71274038461539  4.12860576923077 1.11177884615385  5.17427884615385 0.667067307692308  C 6.21995192307692 0.222355769230769  7.31570512820513 0  8.46153846153846 0  C 9.6073717948718 0  10.703125 0.222355769230769  11.7487980769231 0.667067307692308  C 12.7944711538462 1.11177884615385  13.6959134615385 1.71274038461539  14.453125 2.46995192307692  C 15.2103365384615 3.22716346153846  15.8112980769231 4.12860576923077  16.2560096153846 5.17427884615385  C 16.7007211538462 6.21995192307692  16.9230769230769 7.31570512820513  16.9230769230769 8.46153846153846  C 16.9230769230769 10.224358974359  16.4262820512821 11.8229166666667  15.4326923076923 13.2572115384615  L 19.5552884615385 17.3798076923077  Z " fill-rule="nonzero" fill="#95f204" stroke="none" transform="matrix(1 0 0 1 111 777 )" />
  </g>
</svg>