<?xml version="1.0" encoding="utf-8"?>
<svg version="1.1" xmlns:xlink="http://www.w3.org/1999/xlink" width="30px" height="30px" xmlns="http://www.w3.org/2000/svg">
  <g transform="matrix(1 0 0 1 -333 -1126 )">
    <path d="M 348 1127  C 355.84 1127  362 1133.16  362 1141  C 362 1148.84  355.84 1155  348 1155  C 340.16 1155  334 1148.84  334 1141  C 334 1133.16  340.16 1127  348 1127  Z " fill-rule="nonzero" fill="#ffffff" stroke="none" />
    <path d="M 348 1127  C 355.84 1127  362 1133.16  362 1141  C 362 1148.84  355.84 1155  348 1155  C 340.16 1155  334 1148.84  334 1141  C 334 1133.16  340.16 1127  348 1127  Z " stroke-width="2" stroke="#797979" fill="none" />
  </g>
</svg>