<?xml version="1.0" encoding="utf-8"?>
<svg version="1.1" xmlns:xlink="http://www.w3.org/1999/xlink" width="30px" height="30px" xmlns="http://www.w3.org/2000/svg">
  <g transform="matrix(1 0 0 1 -583 -1127 )">
    <path d="M 598 1128  C 605.84 1128  612 1134.16  612 1142  C 612 1149.84  605.84 1156  598 1156  C 590.16 1156  584 1149.84  584 1142  C 584 1134.16  590.16 1128  598 1128  Z " fill-rule="nonzero" fill="#ffffff" stroke="none" />
    <path d="M 598 1128  C 605.84 1128  612 1134.16  612 1142  C 612 1149.84  605.84 1156  598 1156  C 590.16 1156  584 1149.84  584 1142  C 584 1134.16  590.16 1128  598 1128  Z " stroke-width="2" stroke="#aeaeae" fill="none" />
  </g>
</svg>