<?xml version="1.0" encoding="utf-8"?>
<svg version="1.1" xmlns:xlink="http://www.w3.org/1999/xlink" width="30px" height="30px" xmlns="http://www.w3.org/2000/svg">
  <g transform="matrix(1 0 0 1 -83 -1124 )">
    <path d="M 13.3125 19.875  C 13.3125 20.0625  13.125 20.0625  12.75 20.0625  C 12.5625 20.0625  12.375 20.0625  12.1875 19.875  L 7.87499999999996 15.75  C 7.5 15.375  7.31250000000001 14.8125  7.68749999999999 14.4375  C 8.06250000000004 14.0625  8.62499999999997 14.0625  9.00000000000004 14.4375  L 13.3125 18.5625  C 13.6875 18.9375  13.6875 19.5  13.3125 19.875  Z M 13.3125 19.6875  C 13.3125 20.0625  13.125 20.0625  12.75 20.0625  C 12.5625 20.0625  12.1875 19.875  12 19.6875  C 11.625 19.3125  11.625 18.75  12 18.375  L 20.8125 10.125  C 21.1875 9.75  21.75 9.75  22.125 10.125  C 22.5 10.5  22.5 11.0625  22.125 11.4375  L 13.3125 19.6875  Z M 30 15  C 30 23.25  23.25 30  15 30  C 6.74999999999999 30  0 23.25  0 15  C 0 6.75  6.74999999999999 0  15 0  C 23.25 0  30 6.75  30 15  Z M 28.125 15  C 28.125 7.6875  22.3125 1.875  15 1.875  C 7.68749999999999 1.875  1.875 7.6875  1.875 15  C 1.875 22.3125  7.68749999999999 28.125  15 28.125  C 22.3125 28.125  28.125 22.3125  28.125 15  Z " fill-rule="nonzero" fill="#409eff" stroke="none" transform="matrix(1 0 0 1 83 1124 )" />
  </g>
</svg>