<?xml version="1.0" encoding="utf-8"?>
<svg version="1.1" xmlns:xlink="http://www.w3.org/1999/xlink" width="100px" height="60px" xmlns="http://www.w3.org/2000/svg">
  <defs>
    <linearGradient gradientUnits="userSpaceOnUse" x1="133" y1="99" x2="133" y2="159" id="LinearGradient10">
      <stop id="Stop11" stop-color="#ffffff" offset="0" />
      <stop id="Stop12" stop-color="#f2f2f2" offset="0" />
      <stop id="Stop13" stop-color="#e4e4e4" offset="1" />
      <stop id="Stop14" stop-color="#ffffff" offset="1" />
    </linearGradient>
  </defs>
  <g transform="matrix(1 0 0 1 -83 -99 )">
    <path d="M 133 99  C 161 99  183 112.2  183 129  C 183 145.8  161 159  133 159  C 105 159  83 145.8  83 129  C 83 112.2  105 99  133 99  Z " fill-rule="nonzero" fill="url(#LinearGradient10)" stroke="none" />
    <path d="M 133 99.5  C 160.72 99.5  182.5 112.48  182.5 129  C 182.5 145.52  160.72 158.5  133 158.5  C 105.28 158.5  83.5 145.52  83.5 129  C 83.5 112.48  105.28 99.5  133 99.5  Z " stroke-width="1" stroke="#797979" fill="none" />
  </g>
</svg>