<?xml version="1.0" encoding="utf-8"?>
<svg version="1.1" xmlns:xlink="http://www.w3.org/1999/xlink" width="15px" height="24px" xmlns="http://www.w3.org/2000/svg">
  <g transform="matrix(1 0 0 1 -854 -14 )">
    <path d="M 15 3.34406017369727  C 15 3.59607630272953  14.9083011583011 3.81416718362283  14.7249034749035 3.99833281637717  L 7.03667953667957 11.71875  L 14.7249034749035 19.4391671836228  C 14.9083011583011 19.6233328163772  15 19.8414236972705  15 20.0934398263027  C 15 20.345455955335  14.9083011583011 20.5635468362283  14.7249034749035 20.7477124689826  L 12.3214285714286 23.1612515508685  C 12.1380308880309 23.3454171836228  11.9208494208494 23.4375  11.6698841698842 23.4375  C 11.418918918919 23.4375  11.2017374517375 23.3454171836228  11.0183397683397 23.1612515508685  L 0.275096525096501 12.3730226426799  C 0.0916988416988715 12.1888570099256  0 11.9707661290323  0 11.71875  C 0 11.4667338709677  0.0916988416988715 11.2486429900744  0.275096525096501 11.0644773573201  L 11.0183397683397 0.276248449131511  C 11.2017374517375 0.0920828163771716  11.418918918919 0  11.6698841698842 0  C 11.9208494208494 0  12.1380308880309 0.0920828163771716  12.3214285714286 0.276248449131511  L 14.7249034749035 2.68978753101737  C 14.9083011583011 2.87395316377171  15 3.09204404466501  15 3.34406017369727  Z " fill-rule="nonzero" fill="#333333" stroke="none" transform="matrix(1 0 0 1 854 14 )" />
  </g>
</svg>