<?xml version="1.0" encoding="utf-8"?>
<svg version="1.1" xmlns:xlink="http://www.w3.org/1999/xlink" width="10px" height="25px" preserveAspectRatio="xMidYMin meet" viewBox="513 255  8 25" xmlns="http://www.w3.org/2000/svg">
  <path d="M 517.5 274  L 517.5 265  A 5 5 0 0 0 512.5 260.5 L 445 260.5  A 5 5 0 0 1 440.5 255.5 L 440.5 252  A 5 5 0 0 0 435.5 247.5 L 431 247.5  " stroke-width="1" stroke="#f59a23" fill="none" />
  <path d="M 513.8 276.1  L 517.5 280  L 521.2 276.1  L 517.5 272.3  L 513.8 276.1  Z M 519.8 276.1  L 517.5 278.6  L 515.2 276.1  L 517.5 273.7  L 519.8 276.1  Z M 432 241.2  L 426 247.5  L 432 253.8  L 432 241.2  Z " fill-rule="nonzero" fill="#f59a23" stroke="none" />
</svg>