<?xml version="1.0" encoding="utf-8"?>
<svg version="1.1" xmlns:xlink="http://www.w3.org/1999/xlink" width="19px" height="10px" preserveAspectRatio="xMinYMid meet" viewBox="426 329  19 8" xmlns="http://www.w3.org/2000/svg">
  <path d="M 518.5 357  L 518.5 353  A 5 5 0 0 0 513.5 348.5 L 445 348.5  A 5 5 0 0 1 440.5 343.5 L 440.5 338  A 5 5 0 0 0 435.5 333.5 L 431 333.5  " stroke-width="1" stroke="#f59a23" fill="none" />
  <path d="M 514.8 359.1  L 518.5 363  L 522.2 359.1  L 518.5 355.3  L 514.8 359.1  Z M 520.8 359.1  L 518.5 361.6  L 516.2 359.1  L 518.5 356.7  L 520.8 359.1  Z M 432 327.2  L 426 333.5  L 432 339.8  L 432 327.2  Z " fill-rule="nonzero" fill="#f59a23" stroke="none" />
</svg>