<?xml version="1.0" encoding="utf-8"?>
<svg version="1.1" xmlns:xlink="http://www.w3.org/1999/xlink" width="12px" height="12px" xmlns="http://www.w3.org/2000/svg">
  <g transform="matrix(1 0 0 1 -150 -1798 )">
    <path d="M 156 1802  C 157.12 1802  158 1802.88  158 1804  C 158 1805.12  157.12 1806  156 1806  C 154.88 1806  154 1805.12  154 1804  C 154 1802.88  154.88 1802  156 1802  Z " fill-rule="nonzero" fill="#ffffff" stroke="none" />
    <path d="M 156 1800.5  C 157.96 1800.5  159.5 1802.04  159.5 1804  C 159.5 1805.96  157.96 1807.5  156 1807.5  C 154.04 1807.5  152.5 1805.96  152.5 1804  C 152.5 1802.04  154.04 1800.5  156 1800.5  Z " stroke-width="5" stroke="#409eff" fill="none" />
  </g>
</svg>