<?xml version="1.0" encoding="utf-8"?>
<svg version="1.1" xmlns:xlink="http://www.w3.org/1999/xlink" width="20px" height="21px" xmlns="http://www.w3.org/2000/svg">
  <g transform="matrix(1 0 0 1 -463 -631 )">
    <path d="M 473 632  C 478.04 632  482 636.18  482 641.5  C 482 646.82  478.04 651  473 651  C 467.96 651  464 646.82  464 641.5  C 464 636.18  467.96 632  473 632  Z " fill-rule="nonzero" fill="#ffffff" stroke="none" />
    <path d="M 473 632  C 478.04 632  482 636.18  482 641.5  C 482 646.82  478.04 651  473 651  C 467.96 651  464 646.82  464 641.5  C 464 636.18  467.96 632  473 632  Z " stroke-width="2" stroke="#000000" fill="none" />
  </g>
</svg>