<?xml version="1.0" encoding="utf-8"?>
<svg version="1.1" xmlns:xlink="http://www.w3.org/1999/xlink" width="7px" height="7px" xmlns="http://www.w3.org/2000/svg">
  <g transform="matrix(1 0 0 1 -470 -638 )">
    <path d="M 473.5 639  C 474.9 639  476 640.1  476 641.5  C 476 642.9  474.9 644  473.5 644  C 472.1 644  471 642.9  471 641.5  C 471 640.1  472.1 639  473.5 639  Z " fill-rule="nonzero" fill="#040404" stroke="none" />
    <path d="M 473.5 639  C 474.9 639  476 640.1  476 641.5  C 476 642.9  474.9 644  473.5 644  C 472.1 644  471 642.9  471 641.5  C 471 640.1  472.1 639  473.5 639  Z " stroke-width="2" stroke="#000000" fill="none" />
  </g>
</svg>