<?xml version="1.0" encoding="utf-8"?>
<svg version="1.1" xmlns:xlink="http://www.w3.org/1999/xlink" width="4px" height="4px" xmlns="http://www.w3.org/2000/svg">
  <g transform="matrix(1 0 0 1 -396 -639 )">
    <path d="M 398 640  C 398.56 640  399 640.44  399 641  C 399 641.56  398.56 642  398 642  C 397.44 642  397 641.56  397 641  C 397 640.44  397.44 640  398 640  Z " fill-rule="nonzero" fill="#040404" stroke="none" />
    <path d="M 398 640  C 398.56 640  399 640.44  399 641  C 399 641.56  398.56 642  398 642  C 397.44 642  397 641.56  397 641  C 397 640.44  397.44 640  398 640  Z " stroke-width="2" stroke="#000000" fill="none" />
  </g>
</svg>