<?xml version="1.0" encoding="utf-8"?>
<svg version="1.1" xmlns:xlink="http://www.w3.org/1999/xlink" width="5px" height="5px" xmlns="http://www.w3.org/2000/svg">
  <g transform="matrix(1 0 0 1 -407 -638 )">
    <path d="M 409.5 639  C 410.34 639  411 639.66  411 640.5  C 411 641.34  410.34 642  409.5 642  C 408.66 642  408 641.34  408 640.5  C 408 639.66  408.66 639  409.5 639  Z " fill-rule="nonzero" fill="#040404" stroke="none" />
    <path d="M 409.5 639  C 410.34 639  411 639.66  411 640.5  C 411 641.34  410.34 642  409.5 642  C 408.66 642  408 641.34  408 640.5  C 408 639.66  408.66 639  409.5 639  Z " stroke-width="2" stroke="#000000" fill="none" />
  </g>
</svg>