<?xml version="1.0" encoding="utf-8"?>
<svg version="1.1" xmlns:xlink="http://www.w3.org/1999/xlink" width="174px" height="225px" xmlns="http://www.w3.org/2000/svg">
  <defs>
    <filter x="-6px" y="-5px" width="174px" height="225px" filterUnits="userSpaceOnUse" id="filter25">
      <feOffset dx="-1" dy="0" in="SourceAlpha" result="shadowOffsetInner" />
      <feGaussianBlur stdDeviation="2.5" in="shadowOffsetInner" result="shadowGaussian" />
      <feComposite in2="shadowGaussian" operator="atop" in="SourceAlpha" result="shadowComposite" />
      <feColorMatrix type="matrix" values="0 0 0 0 0.525490196078431  0 0 0 0 0.525490196078431  0 0 0 0 0.525490196078431  0 0 0 0.349019607843137 0  " in="shadowComposite" />
    </filter>
    <g id="widget26">
      <path d="M 0 210.670312233316  C 0 210.670312233316  0 14.2638968894009  0 14.2638968894009  C 0 12.0547578900777  1.79086100067683 10.2638968894009  4 10.2638968894009  C 4 10.2638968894009  68.4215832260812 10.2638968894009  68.4215832260812 10.2638968894009  C 68.4215832260812 10.2638968894009  78.9611880711881 1.74006336405538  78.9611880711881 1.74006336405538  C 78.9611880711881 1.74006336405538  88.4215832260812 10.2638968894009  88.4215832260812 10.2638968894009  C 88.4215832260812 10.2638968894009  160 10.2638968894009  160 10.2638968894009  C 162.209138999323 10.2638968894009  164 12.0547578900777  164 14.2638968894009  C 164 14.2638968894009  164 210.670312233316  164 210.670312233316  C 164 212.879451232639  162.209138999323 214.670312233316  160 214.670312233316  C 160 214.670312233316  4 214.670312233316  4 214.670312233316  C 1.79086100067683 214.670312233316  0 212.879451232639  0 210.670312233316  Z " fill-rule="nonzero" fill="#ffffff" stroke="none" />
    </g>
  </defs>
  <g transform="matrix(1 0 0 1 6 5 )">
    <use xlink:href="#widget26" filter="url(#filter25)" />
    <use xlink:href="#widget26" />
  </g>
</svg>