<?xml version="1.0" encoding="utf-8"?>
<svg version="1.1" xmlns:xlink="http://www.w3.org/1999/xlink" width="12px" height="12px" xmlns="http://www.w3.org/2000/svg">
  <defs>
    <mask fill="white" id="clip4">
      <path d="M 9.48324105810752 6.52888067067488  C 8.80874119010468 8.4132514594753  7.00498330075516 9.76574999999991  4.89149999999995 9.76574999999991  C 2.20048239191397 9.76244407782224  0.0198059221779658 7.58176760808612  0.0164999999999509 4.89074999999991  C 0.0164999999999509 2.20274999999992  2.20350000000008 0.0157499999999118  4.89149999999995 0.0157499999999118  C 7.57950000000005 0.0157499999999118  9.76649999999995 2.20274999999992  9.76649999999995 4.89074999999991  C 9.76649999999995 5.46510639882649  9.66659308065118 6.01664455064122  9.48324105810752 6.52888067067488  Z M 9.01649999999995 4.89074999999991  C 9.01649999999995 2.6160000000001  7.16624999999999 0.765749999999912  4.89149999999995 0.765749999999912  C 2.61674999999991 0.765749999999912  0.766499999999951 2.6160000000001  0.766499999999951 4.89074999999991  C 0.766499999999951 7.16550000000007  2.61674999999991 9.01574999999991  4.89149999999995 9.01574999999991  C 7.16550000000007 9.01574999999991  9.01649999999995 7.16550000000007  9.01649999999995 4.89074999999991  Z M 11.6085 11.9842500000001  C 11.5110654645628 11.9842458002722  11.4174579964183 11.946318636455  11.3474999999999 11.8784999999999  L 7.84349999999995 8.48775000000001  C 7.77101721574854 8.41716015280019  7.73013385143486 8.32027665843407  7.73013385143486 8.21910017628272  C 7.73013385143486 8.01199339509594  7.89802707024842 7.84410017628272  8.10513385143486 7.84410017628272  C 8.20190119291328 7.84410017628272  8.29492264090004 7.88150702799601  8.36475000000019 7.94849999999997  L 11.8687499999999 11.33925  C 11.9420819521583 11.4099312121272  11.9835097265375 11.5074000666203  11.9835097265375 11.6092500001259  C 11.9835097265375 11.8163567813127  11.8156165077239 11.9842500001259  11.6085097265375 11.9842500001259  Z " fill-rule="evenodd" />
    </mask>
  </defs>
  <g transform="matrix(1 0 0 1 -156 -75 )">
    <path d="M 9.48324105810752 6.52888067067488  C 8.80874119010468 8.4132514594753  7.00498330075516 9.76574999999991  4.89149999999995 9.76574999999991  C 2.20048239191397 9.76244407782224  0.0198059221779658 7.58176760808612  0.0164999999999509 4.89074999999991  C 0.0164999999999509 2.20274999999992  2.20350000000008 0.0157499999999118  4.89149999999995 0.0157499999999118  C 7.57950000000005 0.0157499999999118  9.76649999999995 2.20274999999992  9.76649999999995 4.89074999999991  C 9.76649999999995 5.46510639882649  9.66659308065118 6.01664455064122  9.48324105810752 6.52888067067488  Z M 9.01649999999995 4.89074999999991  C 9.01649999999995 2.6160000000001  7.16624999999999 0.765749999999912  4.89149999999995 0.765749999999912  C 2.61674999999991 0.765749999999912  0.766499999999951 2.6160000000001  0.766499999999951 4.89074999999991  C 0.766499999999951 7.16550000000007  2.61674999999991 9.01574999999991  4.89149999999995 9.01574999999991  C 7.16550000000007 9.01574999999991  9.01649999999995 7.16550000000007  9.01649999999995 4.89074999999991  Z M 11.6085 11.9842500000001  C 11.5110654645628 11.9842458002722  11.4174579964183 11.946318636455  11.3474999999999 11.8784999999999  L 7.84349999999995 8.48775000000001  C 7.77101721574854 8.41716015280019  7.73013385143486 8.32027665843407  7.73013385143486 8.21910017628272  C 7.73013385143486 8.01199339509594  7.89802707024842 7.84410017628272  8.10513385143486 7.84410017628272  C 8.20190119291328 7.84410017628272  8.29492264090004 7.88150702799601  8.36475000000019 7.94849999999997  L 11.8687499999999 11.33925  C 11.9420819521583 11.4099312121272  11.9835097265375 11.5074000666203  11.9835097265375 11.6092500001259  C 11.9835097265375 11.8163567813127  11.8156165077239 11.9842500001259  11.6085097265375 11.9842500001259  Z " fill-rule="nonzero" fill="#409eff" stroke="none" transform="matrix(1 0 0 1 156 75 )" />
    <path d="M 9.48324105810752 6.52888067067488  C 8.80874119010468 8.4132514594753  7.00498330075516 9.76574999999991  4.89149999999995 9.76574999999991  C 2.20048239191397 9.76244407782224  0.0198059221779658 7.58176760808612  0.0164999999999509 4.89074999999991  C 0.0164999999999509 2.20274999999992  2.20350000000008 0.0157499999999118  4.89149999999995 0.0157499999999118  C 7.57950000000005 0.0157499999999118  9.76649999999995 2.20274999999992  9.76649999999995 4.89074999999991  C 9.76649999999995 5.46510639882649  9.66659308065118 6.01664455064122  9.48324105810752 6.52888067067488  Z " stroke-width="2" stroke="#3a8ee6" fill="none" transform="matrix(1 0 0 1 156 75 )" mask="url(#clip4)" />
    <path d="M 9.01649999999995 4.89074999999991  C 9.01649999999995 2.6160000000001  7.16624999999999 0.765749999999912  4.89149999999995 0.765749999999912  C 2.61674999999991 0.765749999999912  0.766499999999951 2.6160000000001  0.766499999999951 4.89074999999991  C 0.766499999999951 7.16550000000007  2.61674999999991 9.01574999999991  4.89149999999995 9.01574999999991  C 7.16550000000007 9.01574999999991  9.01649999999995 7.16550000000007  9.01649999999995 4.89074999999991  Z " stroke-width="2" stroke="#3a8ee6" fill="none" transform="matrix(1 0 0 1 156 75 )" mask="url(#clip4)" />
    <path d="M 11.6085 11.9842500000001  C 11.5110654645628 11.9842458002722  11.4174579964183 11.946318636455  11.3474999999999 11.8784999999999  L 7.84349999999995 8.48775000000001  C 7.77101721574854 8.41716015280019  7.73013385143486 8.32027665843407  7.73013385143486 8.21910017628272  C 7.73013385143486 8.01199339509594  7.89802707024842 7.84410017628272  8.10513385143486 7.84410017628272  C 8.20190119291328 7.84410017628272  8.29492264090004 7.88150702799601  8.36475000000019 7.94849999999997  L 11.8687499999999 11.33925  C 11.9420819521583 11.4099312121272  11.9835097265375 11.5074000666203  11.9835097265375 11.6092500001259  C 11.9835097265375 11.8163567813127  11.8156165077239 11.9842500001259  11.6085097265375 11.9842500001259  Z " stroke-width="2" stroke="#3a8ee6" fill="none" transform="matrix(1 0 0 1 156 75 )" mask="url(#clip4)" />
  </g>
</svg>