<?xml version="1.0" encoding="utf-8"?>
<svg version="1.1" xmlns:xlink="http://www.w3.org/1999/xlink" width="17px" height="16px" xmlns="http://www.w3.org/2000/svg">
  <g transform="matrix(1 0 0 1 -665 -341 )">
    <path d="M 16.7534045442478 6.50032579629629  C 16.8559536028761 6.4018610185185  16.8928628219026 6.25463757407405  16.8486025508849 6.12048972222223  C 16.8043230420354 5.98636081481482  16.6865907643805 5.88857822222221  16.5448232323009 5.86828264814812  L 11.176592869469 5.10017764814816  L 8.77591654424779 0.309910777777759  C 8.71252815154867 0.183437703703703  8.58171023672568 0.103373481481498  8.43848019690265 0.103373481481498  C 8.29525015707964 0.103373481481498  8.16443222345134 0.1834566666667  8.1010438495575 0.309910777777759  L 5.70030977323006 5.10017762962963  L 0.33209866703541 5.86828262962962  C 0.190369629424765 5.88857820370373  0.0725988573008749 5.98636079629628  0.0283386050884928 6.1204897037037  C -0.0159216471238892 6.25461861111111  0.0209875530973704 6.401861  0.123555887168152 6.50032579629629  L 4.00802848783187 10.2290261851852  L 3.0910329358407 15.4939934259259  C 3.0668245033186 15.633011462963  3.12484392367256 15.7734886666667  3.2407095862832 15.8563954259259  C 3.35657524889379 15.9393400740741  3.51017758296459 15.9501795370371  3.63697358738938 15.8846121481482  L 8.43848021570795 13.3988308333333  L 13.2399483683629 15.8846121481482  C 13.2949850409292 15.9130941666667  13.355102005531 15.9271741111111  13.4150072975663 15.9271741111111  C 13.4930208053098 15.9271741111111  13.5706687002212 15.903296962963  13.636212369469 15.8563954259259  C 13.7520780320797 15.7734886666667  13.8101359280973 15.6330304259259  13.7859082577434 15.4939934259259  L 12.868931943584 10.2290261851852  L 16.7534045442478 6.50032579629629  Z M 15.682152346239 6.4937311851852  L 12.2019490918141 9.83431425925929  C 12.1132746283186 9.91945712962962  12.0728245951327 10.0420833148148  12.093742380531 10.1623028518518  L 12.9153089778761 14.8792896296297  L 8.61357762057523 12.6522342222222  C 8.55875263938054 12.6238659074074  8.49863565597343 12.6096722592592  8.43848019690265 12.6096722592592  C 8.43515105530975 12.6096722592592  8.43182191371682 12.6098807037037  8.42849277212389 12.609975462963  L 8.42849277212389 1.33107561111109  L 8.43848019690265 1.31115903703704  L 10.5892977621681 5.60284838888887  C 10.6441227433629 5.71219055555557  10.7500587134956 5.78800996296295  10.8726403727876 5.80555775925927  L 15.682152346239 6.4937311851852  Z " fill-rule="nonzero" fill="#ff9900" stroke="none" transform="matrix(1 0 0 1 665 341 )" />
  </g>
</svg>